# xmcd
#
# Track frame offsets: 
#        150
#        18471
#        28943
#        43262
#        64932
#        79363
#        90729
#        104515
#        119362
#        132558
#        148131
#        158335
#        177745
#        192074
#        209173
#        224211
#        236091
#        253047
#        265132
#        277300
#
# Disc length: 3913 seconds
#
# Revision: 0
# Processed by: cddbd v1.5.2PL0 Copyright (c) Steve Scherf et al.
# Submitted via: ExactAudioCopy v0.95a4
#
DISCID=4c0f4714
DTITLE=Various Artist - Nestarnouci country balady
DYEAR=2010
DGENRE=Country
TTITLE0=Kenny Rogers/My Funny Valentine
TTITLE1=Glen Campbell/Time In A Bottle
TTITLE2=Brenda Lee/I Want To Be Wanted
TTITLE3=Kenny Rogers/Have I Told You Lately
TTITLE4=Glen Campbell/And I Love You So
TTITLE5=Brenda Lee/Break It To Me Gently
TTITLE6=Kenny Rogers/Love Me Tender
TTITLE7=Glen Campbell/Wthout You
TTITLE8=Lacy Dalton/Dream Baby
TTITLE9=Kenny Rogers/Unchained Melody
TTITLE10=Glen Campbell/What A Wonderful World
TTITLE11=Don Williams/You've Got a Friend
TTITLE12=Lane Brody/I'll Have To Say Love You In A Song
TTITLE13=Kenny Rogers/Lady
TTITLE14=Johnny Rodriguez/Desperado
TTITLE15=Waylon Jennings/Crying
TTITLE16=Glen Campbell/You've Lost That Lovin'Feelin'
TTITLE17=Benda Lee/If You Love Me, Really Love Me
TTITLE18=Lee Greenwood/You'll Never Walk Alone
TTITLE19=Mickey Gilley/Stand By Me
EXTD=
EXTT0=
EXTT1=
EXTT2=
EXTT3=
EXTT4=
EXTT5=
EXTT6=
EXTT7=
EXTT8=
EXTT9=
EXTT10=
EXTT11=
EXTT12=
EXTT13=
EXTT14=
EXTT15=
EXTT16=
EXTT17=
EXTT18=
EXTT19=
PLAYORDER=
